Coordinates
version=1
nRows=17
nColumns=24
inDegrees=yes

Units are S.I. units (second, meters, Newtons, ...)
Angles are in degrees.

endheader
time	pelvis_tilt	pelvis_list	pelvis_rotation	pelvis_tx	pelvis_ty	pelvis_tz	hip_flexion_r	hip_adduction_r	hip_rotation_r	knee_angle_r	ankle_angle_r	subtalar_angle_r	mtp_angle_r	hip_flexion_l	hip_adduction_l	hip_rotation_l	knee_angle_l	ankle_angle_l	subtalar_angle_l	mtp_angle_l	lumbar_extension	lumbar_bending	lumbar_rotation
      3.81000000	     -1.13224650	     -5.24294352	     -0.17421135	     -1.22493194	      0.94085852	      0.25482424	     12.52362531	     12.73408056	      5.84937982	    -19.04492981	      9.76786610	    -15.82305544	      0.00000000	     25.44963427	     -6.96738738	     -3.94639506	    -68.04839519	      5.82046852	    -16.53569797	      0.00000000	    -10.87356818	      3.19732357	     -4.59837094
      3.81500000	     -1.10408229	     -5.00357421	     -0.37977029	     -1.21827860	      0.94186434	      0.25519188	     11.79905620	     12.53034035	      6.20940905	    -18.65785693	      9.96522216	    -15.83713226	      0.00000000	     25.94630841	     -6.74891908	     -4.16559330	    -67.18256395	      6.52905702	    -15.93406552	      0.00000000	    -10.89281690	      2.86609319	     -4.38595681
      3.82000000	     -1.08226390	     -4.77468545	     -0.59069409	     -1.21162659	      0.94277169	      0.25556988	     11.08161688	     12.33348029	      6.58257392	    -18.26660461	     10.17373086	    -15.86070585	      0.00000000	     26.42098675	     -6.54311290	     -4.38886156	    -66.23774264	      7.18949759	    -15.33073561	      0.00000000	    -10.90240379	      2.54553903	     -4.15758450
      3.82500000	     -1.07384842	     -4.56066472	     -0.80443154	     -1.20497592	      0.94358229	      0.25593317	     10.38433022	     12.14379907	      6.93933770	    -17.87769174	     10.37770159	    -15.87659637	      0.00000000	     26.87719970	     -6.35012608	     -4.61474323	    -65.20552770	      7.80920368	    -14.74705728	      0.00000000	    -10.89282593	      2.24795961	     -3.93617659
      3.83000000	     -1.05727741	     -4.36258000	     -1.02380530	     -1.19831811	      0.94430105	      0.25629632	      9.67516410	     11.96724269	      7.32369712	    -17.48161672	     10.59815037	    -15.91062889	      0.00000000	     27.29283279	     -6.17006206	     -4.83867942	    -64.09321772	      8.37612143	    -14.20262805	      0.00000000	    -10.89106306	      1.97062267	     -3.67813701
      3.83500000	     -1.06758205	     -4.18744578	     -1.23850492	     -1.19166688	      0.94489325	      0.25665579	      9.00830082	     11.80414725	      7.65092315	    -17.09841368	     10.81323551	    -15.90536978	      0.00000000	     27.70692871	     -6.00504027	     -5.04496684	    -62.89787923	      8.91303089	    -13.69673956	      0.00000000	    -10.85704883	      1.71760593	     -3.46252581
      3.84000000	     -1.07974401	     -4.03272517	     -1.45823705	     -1.18498987	      0.94538499	      0.25700293	      8.34929785	     11.65612631	      7.97363226	    -16.72680157	     11.04486261	    -15.88486068	      0.00000000	     28.08639161	     -5.85378203	     -5.24051648	    -61.61876582	      9.40175126	    -13.23840912	      0.00000000	    -10.81319207	      1.49629090	     -3.23428328
      3.84500000	     -1.10323977	     -3.90226313	     -1.68144259	     -1.17829048	      0.94575799	      0.25735669	      7.70513013	     11.52572415	      8.26335341	    -16.35529480	     11.28371455	    -15.83998643	      0.00000000	     28.44741463	     -5.72857266	     -5.43534051	    -60.26569133	      9.84829374	    -12.82431244	      0.00000000	    -10.75490235	      1.30294308	     -3.02349589
      3.85000000	     -1.17673776	     -3.80667932	     -1.82917911	     -1.17160756	      0.94591131	      0.25757737	      7.13963697	     11.41879974	      8.47318243	    -16.01513488	     11.55380474	    -15.78987571	      0.00000000	     28.85360225	     -5.57181710	     -5.49066277	    -58.85065931	     10.27331318	    -12.46082990	      0.00000000	    -10.63733781	      1.16574164	     -2.88924807
      3.85500000	     -1.14284001	     -3.71403770	     -2.11950794	     -1.16489169	      0.94617015	      0.25799087	      6.43958965	     11.32345663	      8.84656493	    -15.67110304	     11.82643371	    -15.70988585	      0.00000000	     29.06760880	     -5.49974871	     -5.71906617	    -57.33143225	     10.62327562	    -12.16750872	      0.00000000	    -10.65010715	      1.00901681	     -2.55309139
      3.86000000	     -1.15144316	     -3.65301073	     -2.32608723	     -1.15815582	      0.94622771	      0.25827929	      5.80083382	     11.24864080	      9.12402652	    -15.34051691	     12.10977672	    -15.65875523	      0.00000000	     29.31852252	     -5.40364287	     -5.82677316	    -55.75565983	     10.95892037	    -11.89213187	      0.00000000	    -10.60900801	      0.90655217	     -2.34077518
      3.86500000	     -1.18925567	     -3.61379827	     -2.52616789	     -1.15138855	      0.94613822	      0.25855485	      5.20610454	     11.19275933	      9.36478843	    -15.03403453	     12.40744890	    -15.58916221	      0.00000000	     29.57164623	     -5.32468424	     -5.91627759	    -54.11487391	     11.26484406	    -11.63018885	      0.00000000	    -10.52995290	      0.83473580	     -2.16015088
      3.87000000	     -1.19585988	     -3.58974732	     -2.73997082	     -1.14463940	      0.94599625	      0.25881657	      4.58936871	     11.14923404	      9.64899448	    -14.75618939	     12.72301708	    -15.51157430	      0.00000000	     29.75295864	     -5.24599576	     -5.96871932	    -52.39755962	     11.52889798	    -11.40558423	      0.00000000	    -10.49513635	      0.77950838	     -1.92814619
      3.87500000	     -1.20258725	     -3.58207385	     -2.93541039	     -1.13785766	      0.94575023	      0.25905506	      3.98343031	     11.12075964	      9.91992350	    -14.50128006	     13.04877967	    -15.45069842	      0.00000000	     29.90310365	     -5.17269139	     -5.99265635	    -50.61345698	     11.77388049	    -11.18119941	      0.00000000	    -10.45718744	      0.74111402	     -1.72043274
      3.88000000	     -1.24495314	     -3.58224855	     -3.11448974	     -1.13104692	      0.94535528	      0.25925573	      3.42756315	     11.09906633	     10.15392840	    -14.26542487	     13.38402624	    -15.40621757	      0.00000000	     30.06187151	     -5.10072633	     -5.99742327	    -48.76828928	     12.00868999	    -10.92829443	      0.00000000	    -10.37559660	      0.72390584	     -1.56868145
      3.88500000	     -1.23386341	     -3.58811219	     -3.31235633	     -1.12426666	      0.94497125	      0.25940665	      2.82868641	     11.07666934	     10.45273849	    -14.06609058	     13.72779782	    -15.35558932	      0.00000000	     30.11981164	     -5.02250630	     -5.97539845	    -46.84379120	     12.19580054	    -10.68376024	      0.00000000	    -10.37364531	      0.71691740	     -1.34465825
      3.89000000	     -1.24018952	     -3.60056655	     -3.48941851	     -1.11744670	      0.94447534	      0.25953485	      2.25745095	     11.06209940	     10.72438101	    -13.88395190	     14.07693103	    -15.33800888	      0.00000000	     30.16339610	     -4.94319170	     -5.92301352	    -44.85860560	     12.37669281	    -10.39289482	      0.00000000	    -10.34544658	      0.71754175	     -1.17064676
